<?xml version="1.0" standalone="no"?>
<!DOCTYPE svg PUBLIC "-//W3C//DTD SVG 20010904//EN"
 "http://www.w3.org/TR/2001/REC-SVG-20010904/DTD/svg10.dtd">
<svg version="1.0" xmlns="http://www.w3.org/2000/svg"
 width="600.000000pt" height="600.000000pt" viewBox="0 0 600.000000 600.000000"
 preserveAspectRatio="xMidYMid meet">

<g transform="translate(0.000000,600.000000) scale(0.100000,-0.100000)"
fill="#000000" stroke="none">
<path d="M2775 5884 c-199 -29 -348 -71 -454 -131 -87 -49 -197 -161 -242
-246 -19 -37 -39 -67 -45 -67 -6 0 -34 29 -63 65 -127 157 -236 213 -334 171
-18 -7 -62 -41 -99 -74 -78 -71 -119 -94 -208 -117 -84 -22 -127 -45 -171 -92
-49 -50 -71 -97 -108 -226 -41 -139 -44 -145 -118 -254 -34 -51 -67 -110 -73
-130 -17 -59 -40 -328 -47 -548 -5 -164 -3 -214 11 -280 30 -147 108 -274 180
-293 62 -17 110 12 172 102 l33 49 0 -180 c0 -267 21 -364 88 -423 l35 -31 -6
-577 c-8 -695 -22 -1208 -36 -1321 -6 -46 -23 -131 -37 -190 -24 -92 -27 -126
-27 -266 0 -145 2 -166 23 -219 42 -104 130 -171 356 -266 139 -60 399 -143
535 -173 206 -45 299 -52 705 -52 357 0 386 1 485 23 137 29 263 68 435 132
304 114 428 182 527 288 126 137 154 279 102 531 -25 126 -65 393 -59 400 2 1
41 -2 87 -8 205 -27 407 41 558 189 79 78 129 157 167 265 l28 80 0 865 0 865
-23 70 c-57 173 -184 320 -343 398 -52 25 -118 51 -148 57 -64 15 -195 18
-269 7 l-53 -8 65 81 c93 113 100 130 100 225 1 98 -29 276 -55 330 -11 22
-47 65 -82 96 -45 40 -75 79 -106 137 -90 167 -207 244 -436 287 -49 9 -96 22
-104 28 -7 6 -34 42 -58 79 -85 130 -261 265 -423 327 -60 23 -80 25 -250 27
-102 1 -198 0 -215 -2z m425 -139 c78 -31 200 -108 262 -164 33 -30 84 -92
114 -137 33 -53 65 -89 85 -99 17 -9 84 -28 148 -41 200 -43 275 -92 351 -233
29 -54 65 -101 111 -147 38 -36 71 -76 73 -88 3 -11 12 -61 22 -111 37 -193
35 -205 -56 -327 -38 -51 -90 -131 -116 -178 -111 -201 -166 -225 -344 -150
-139 58 -225 49 -316 -33 -106 -95 -143 -103 -265 -62 -173 60 -211 55 -316
-37 -109 -95 -135 -98 -273 -33 -107 51 -153 56 -194 24 -41 -32 -65 -89 -91
-222 -26 -126 -51 -207 -64 -207 -5 0 -19 8 -32 19 -70 54 -149 74 -201 50
-75 -34 -132 -221 -157 -514 -21 -237 -30 -310 -47 -360 -33 -98 -79 -118
-152 -65 -81 59 -123 164 -147 377 -27 235 -48 271 -173 288 -34 4 -56 13 -62
24 -15 29 -29 176 -34 372 -8 262 -26 329 -90 329 -38 0 -74 -38 -130 -136
-61 -107 -76 -111 -117 -39 -61 107 -71 256 -44 610 21 279 24 292 89 390 76
114 100 164 131 280 49 182 67 202 224 252 108 34 118 40 182 100 73 69 111
87 160 73 50 -15 73 -34 149 -125 75 -89 110 -115 158 -115 43 0 75 30 148
141 121 184 258 259 558 304 133 20 397 15 456 -10z m1443 -1600 c179 -47 323
-181 389 -365 l23 -65 0 -830 0 -830 -23 -67 c-34 -98 -69 -156 -136 -223 -66
-66 -139 -111 -226 -141 -67 -23 -232 -26 -302 -5 l-46 13 -7 107 c-3 58 -8
122 -11 141 -5 35 -4 35 52 53 144 45 271 189 303 345 7 35 11 234 11 575 0
567 -1 581 -56 689 -59 116 -206 228 -322 243 -82 11 -79 8 -86 93 -7 74 -5
81 28 154 32 70 38 77 80 93 25 10 60 21 78 25 56 13 191 11 251 -5z m-774
-227 c95 -48 134 -63 167 -63 l44 0 0 -40 c0 -22 4 -123 10 -225 5 -102 14
-295 20 -430 53 -1239 92 -1752 157 -2075 35 -172 35 -263 1 -330 -76 -149
-324 -275 -743 -379 -252 -62 -340 -71 -725 -71 -462 1 -630 23 -975 130 -268
83 -414 155 -448 219 -42 79 -44 230 -5 399 l20 89 22 -20 c107 -96 344 -209
561 -265 317 -83 628 -95 1080 -42 281 34 368 54 382 91 18 47 -54 55 -275 33
-496 -50 -1035 1 -1368 130 -125 48 -250 130 -337 219 l-39 40 11 193 c6 107
14 511 18 899 l7 705 18 -145 c31 -254 111 -472 211 -575 38 -39 62 -55 90
-60 132 -25 215 83 258 335 5 30 16 140 24 243 9 104 22 235 30 290 16 104 49
232 63 241 4 3 28 -25 52 -61 65 -95 104 -127 148 -119 46 7 79 39 107 101 28
64 40 112 65 271 11 71 24 132 29 137 4 4 32 -14 62 -41 78 -71 127 -102 163
-102 47 0 115 45 226 149 116 107 106 105 265 57 133 -41 206 -26 308 63 68
60 111 83 142 77 17 -3 86 -34 154 -68z m414 -263 c32 -8 70 -22 85 -32 50
-31 113 -98 140 -148 l27 -50 0 -575 0 -575 -27 -52 c-16 -29 -42 -68 -59 -87
-30 -35 -152 -104 -156 -89 -4 13 -41 747 -58 1128 -8 193 -17 383 -20 423 -2
39 -1 72 3 72 4 0 34 -7 65 -15z"/>
<path d="M1883 5066 c-127 -41 -218 -153 -253 -307 l-13 -56 -68 -7 c-184 -17
-299 -114 -348 -293 -28 -105 -30 -172 -6 -189 24 -18 69 -18 84 -1 6 8 18 54
26 102 26 147 76 215 184 251 61 19 121 15 247 -18 89 -23 109 -21 126 17 19
42 -2 71 -68 91 l-56 18 6 43 c14 106 91 210 172 232 64 18 153 13 254 -15
l94 -26 23 27 c28 32 29 49 4 74 -53 53 -310 89 -408 57z"/>
<path d="M3455 4717 c-27 -13 -73 -43 -102 -66 -29 -22 -55 -41 -58 -41 -3 0
-24 14 -47 30 -91 66 -225 77 -323 27 -65 -33 -151 -103 -177 -144 -19 -31
-19 -35 -4 -58 27 -41 61 -33 126 29 31 29 75 63 98 75 49 25 126 28 177 7 42
-18 124 -93 171 -158 36 -49 58 -57 95 -38 28 16 24 60 -11 107 l-30 41 42 35
c66 53 107 71 168 71 88 1 152 -42 266 -179 42 -50 42 -50 70 -35 17 9 30 26
32 39 8 52 -130 205 -225 252 -72 36 -200 38 -268 6z"/>
<path d="M3605 3454 c-29 -31 -32 -79 -15 -285 5 -68 17 -223 25 -344 9 -121
24 -341 35 -490 11 -148 28 -403 40 -565 30 -429 32 -451 52 -463 25 -16 65 6
85 47 17 38 19 -1 -22 581 -8 110 -23 331 -34 490 -20 273 -37 515 -61 858 -6
81 -15 159 -20 172 -13 34 -53 33 -85 -1z"/>
<path d="M2760 3372 l-22 -18 12 -1079 c6 -594 13 -1090 16 -1102 10 -51 74
-71 108 -34 16 17 16 76 6 882 -14 1224 -18 1327 -41 1350 -24 24 -50 24 -79
1z"/>
<path d="M1857 2324 c-3 -4 -26 -6 -50 -6 l-44 1 -6 -167 c-4 -92 -10 -311
-13 -487 l-7 -320 42 -38 c22 -20 45 -37 50 -37 27 0 31 44 43 543 13 501 12
537 -15 511z"/>
</g>
</svg>
